<svg width="70" height="70" fill="none" xmlns="http://www.w3.org/2000/svg"><g clip-path="url(#a)"><rect width="70" height="70" rx="10" fill="#4E3E00"/><path d="M94.857-15.518S68.48-2.956 73.161 28.122c5.252 34.845-25.209 49.8-46.02 41.186C6.329 60.664 7.785 28.689-31.783 27.702c-40.424-.987-48.931-41.246-48.931-41.246" stroke="#fff" stroke-opacity=".2" stroke-width="2" stroke-miterlimit="10"/><path d="M64.368-24.88S52.948 1.68 57.03 28.09c4.11 26.411-14.36 29.522-21.697 26.411C20.09 48.102 17.15 13.824-7.46 11.61-25.959 9.935-50.853 23.186-64.042-6.874" stroke="#fff" stroke-opacity=".2" stroke-width="2" stroke-miterlimit="10"/><path d="M52.063-13.036s4.111 27.13-14.074 22.284C17.15 3.684 17.463-9.357-8.916 2.966c-9.392 4.397-47.19 5.683-39.568-18.484M38.874 45.14c4.367 0 7.908-5.463 7.908-12.203 0-6.74-3.54-12.204-7.908-12.204-4.367 0-7.908 5.464-7.908 12.204s3.54 12.203 7.908 12.203Z" stroke="#fff" stroke-opacity=".2" stroke-width="2" stroke-miterlimit="10"/><g filter="url(#b)"><path d="M11 10h50v50H11V10Z" fill="#F7DF1E"/><path d="m24.147 51.784 3.826-2.316c.738 1.309 1.41 2.416 3.02 2.416 1.545 0 2.518-.604 2.518-2.953V32.955h4.699v16.042c0 4.867-2.853 7.082-7.015 7.082-3.759 0-5.94-1.946-7.048-4.296Zm16.615-.504 3.826-2.215c1.007 1.645 2.316 2.853 4.631 2.853 1.948 0 3.189-.974 3.189-2.316 0-1.611-1.275-2.182-3.423-3.121l-1.175-.504c-3.39-1.443-5.639-3.255-5.639-7.081 0-3.525 2.685-6.21 6.88-6.21 2.988 0 5.136 1.04 6.68 3.76l-3.659 2.349c-.805-1.443-1.678-2.014-3.02-2.014-1.376 0-2.25.873-2.25 2.014 0 1.41.874 1.98 2.887 2.853l1.175.503c3.994 1.712 6.243 3.457 6.243 7.384 0 4.23-3.323 6.545-7.787 6.545-4.363 0-7.182-2.081-8.558-4.8" fill="#000"/></g></g><defs><clipPath id="a"><rect width="70" height="70" rx="10" fill="#fff"/></clipPath><filter id="b" x="-4" y="-1" width="80" height="80" filterUnits="userSpaceOnUse" color-interpolation-filters="sRGB"><feFlood flood-opacity="0" result="BackgroundImageFix"/><feColorMatrix in="SourceAlpha" values="0 0 0 0 0 0 0 0 0 0 0 0 0 0 0 0 0 0 127 0"/><feOffset dy="4"/><feGaussianBlur stdDeviation="7.5"/><feColorMatrix values="0 0 0 0 0 0 0 0 0 0 0 0 0 0 0 0 0 0 0.25 0"/><feBlend in2="BackgroundImageFix" result="effect1_dropShadow"/><feBlend in="SourceGraphic" in2="effect1_dropShadow" result="shape"/></filter></defs></svg>