<svg width="70" height="70" fill="none" xmlns="http://www.w3.org/2000/svg"><g clip-path="url(#a)"><rect width="70" height="70" rx="10" fill="#003842"/><path d="M94.857-15.518S68.48-2.956 73.161 28.122c5.252 34.845-25.209 49.8-46.02 41.186C6.329 60.664 7.785 28.689-31.783 27.702c-40.424-.987-48.931-41.246-48.931-41.246" stroke="#fff" stroke-opacity=".2" stroke-width="2" stroke-miterlimit="10"/><path d="M64.368-24.88S52.948 1.68 57.03 28.09c4.11 26.411-14.36 29.522-21.697 26.411C20.09 48.102 17.15 13.824-7.46 11.61-25.959 9.935-50.853 23.186-64.042-6.874" stroke="#fff" stroke-opacity=".2" stroke-width="2" stroke-miterlimit="10"/><path d="M52.063-13.036s4.111 27.13-14.074 22.284C17.15 3.684 17.463-9.357-8.916 2.966c-9.392 4.397-47.19 5.683-39.567-18.484M38.874 45.14c4.368 0 7.908-5.463 7.908-12.203 0-6.74-3.54-12.204-7.908-12.204-4.367 0-7.908 5.464-7.908 12.204s3.54 12.203 7.908 12.203Z" stroke="#fff" stroke-opacity=".2" stroke-width="2" stroke-miterlimit="10"/><g clip-path="url(#b)"><path d="M35 39.247a4.286 4.286 0 1 0 0-8.573 4.286 4.286 0 0 0 0 8.573Z" fill="#00D8FF"/><path clip-rule="evenodd" d="M35 26.245c5.755 0 11.101.826 15.132 2.214 4.857 1.672 7.843 4.206 7.843 6.501 0 2.392-3.165 5.084-8.38 6.812-3.943 1.307-9.132 1.989-14.595 1.989-5.6 0-10.904-.64-14.892-2.003-5.045-1.724-8.083-4.452-8.083-6.798 0-2.276 2.85-4.79 7.64-6.46 4.045-1.41 9.523-2.255 15.334-2.255H35Z" stroke="#00D8FF" stroke-width="2.734"/><path clip-rule="evenodd" d="M27.414 30.628c2.875-4.985 6.26-9.204 9.477-12.003 3.874-3.372 7.562-4.692 9.55-3.546 2.071 1.195 2.823 5.282 1.714 10.663-.837 4.068-2.84 8.904-5.568 13.636-2.799 4.852-6.003 9.127-9.175 11.9-4.014 3.508-7.894 4.778-9.927 3.606-1.971-1.136-2.726-4.863-1.78-9.845.8-4.21 2.806-9.377 5.708-14.411Z" stroke="#00D8FF" stroke-width="2.734"/><path clip-rule="evenodd" d="M27.42 39.39c-2.882-4.979-4.845-10.02-5.665-14.204-.986-5.041-.289-8.895 1.698-10.045 2.07-1.198 5.985.192 10.093 3.84 3.107 2.758 6.296 6.906 9.033 11.634 2.807 4.848 4.91 9.759 5.728 13.891 1.035 5.23.197 9.227-1.833 10.402-1.97 1.14-5.575-.067-9.419-3.375-3.248-2.795-6.723-7.113-9.634-12.142Z" stroke="#00D8FF" stroke-width="2.734"/></g></g><defs><clipPath id="a"><rect width="70" height="70" rx="10" fill="#fff"/></clipPath><clipPath id="b"><path fill="#fff" transform="translate(11 11)" d="M0 0h48v48H0z"/></clipPath></defs></svg>