<svg width="70" height="70" fill="none" xmlns="http://www.w3.org/2000/svg"><g clip-path="url(#a)"><rect width="70" height="70" rx="10" fill="#003438"/><path d="M94.857-15.518S68.48-2.956 73.161 28.122c5.252 34.845-25.209 49.8-46.02 41.186C6.329 60.664 7.785 28.689-31.783 27.702c-40.424-.987-48.931-41.246-48.931-41.246" stroke="#fff" stroke-opacity=".2" stroke-width="2" stroke-miterlimit="10"/><path d="M64.368-24.88S52.948 1.68 57.03 28.09c4.11 26.411-14.36 29.522-21.697 26.411C20.09 48.102 17.15 13.824-7.46 11.61-25.959 9.935-50.853 23.186-64.042-6.874" stroke="#fff" stroke-opacity=".2" stroke-width="2" stroke-miterlimit="10"/><path d="M52.063-13.036s4.111 27.13-14.074 22.284C17.15 3.684 17.463-9.357-8.916 2.966c-9.392 4.397-47.19 5.683-39.567-18.484M38.874 45.14c4.367 0 7.908-5.463 7.908-12.203 0-6.74-3.54-12.204-7.908-12.204-4.367 0-7.908 5.464-7.908 12.204s3.54 12.203 7.908 12.203Z" stroke="#fff" stroke-opacity=".2" stroke-width="2" stroke-miterlimit="10"/><g filter="url(#b)" fill="#fff"><path d="M36 15c-4.533 0-7.367 2.223-8.5 6.667 1.7-2.223 3.683-3.056 5.95-2.5 1.294.316 2.218 1.236 3.241 2.255C38.357 23.08 40.287 25 44.5 25c4.533 0 7.367-2.223 8.5-6.667-1.7 2.223-3.683 3.056-5.95 2.5-1.293-.316-2.218-1.236-3.241-2.255C42.143 16.92 40.213 15 36 15Zm-8.5 10c-4.533 0-7.367 2.223-8.5 6.667 1.7-2.223 3.683-3.056 5.95-2.5 1.293.316 2.218 1.236 3.241 2.255C29.857 33.08 31.787 35 36 35c4.533 0 7.367-2.222 8.5-6.667-1.7 2.223-3.683 3.056-5.95 2.5-1.293-.316-2.218-1.236-3.241-2.255C33.643 26.92 31.714 25 27.5 25ZM13.963 44.01v-1.56h-1.9v-2.1l-1.654.48v1.62H9v1.56h1.41v3.6c0 1.95 1.01 2.64 3.553 2.34v-1.455c-1.256.06-1.9.075-1.9-.885v-3.6h1.9Zm7.253-1.56v1.065c-.582-.78-1.486-1.26-2.68-1.26-2.084 0-3.815 1.71-3.815 3.945 0 2.22 1.73 3.945 3.814 3.945 1.195 0 2.099-.48 2.681-1.275v1.08h1.654v-7.5h-1.654Zm-2.42 6.15c-1.38 0-2.42-1.005-2.42-2.4s1.04-2.4 2.42-2.4c1.378 0 2.42 1.005 2.42 2.4s-1.042 2.4-2.42 2.4Zm6.83-7.275c.582 0 1.057-.48 1.057-1.035 0-.57-.474-1.035-1.057-1.035-.582 0-1.057.465-1.057 1.035 0 .555.475 1.035 1.057 1.035ZM24.8 49.95h1.655v-7.5h-1.655v7.5Zm3.576 0h1.654V39h-1.654v10.95Zm12.399-7.5-1.501 5.175-1.594-5.175h-1.577l-1.609 5.175-1.486-5.175h-1.746l2.405 7.5h1.624l1.608-5.055 1.593 5.055h1.624l2.405-7.5h-1.746Zm3.792-1.125c.582 0 1.057-.48 1.057-1.035 0-.57-.475-1.035-1.057-1.035s-1.057.465-1.057 1.035c0 .555.475 1.035 1.057 1.035Zm-.827 8.625h1.654v-7.5H43.74v7.5Zm7.604-7.695c-1.042 0-1.869.375-2.374 1.155v-.96h-1.655v7.5h1.655v-4.02c0-1.53.858-2.16 1.945-2.16 1.042 0 1.716.6 1.716 1.74v4.44h1.654v-4.605c0-1.95-1.225-3.09-2.94-3.09Zm10.789-2.805v4.065c-.582-.78-1.486-1.26-2.68-1.26-2.084 0-3.815 1.71-3.815 3.945 0 2.22 1.73 3.945 3.814 3.945 1.195 0 2.099-.48 2.68-1.275v1.08h1.655v-10.5h-1.654Zm-2.42 9.15c-1.38 0-2.42-1.005-2.42-2.4s1.04-2.4 2.42-2.4c1.378 0 2.42 1.005 2.42 2.4s-1.042 2.4-2.42 2.4Z"/></g></g><defs><clipPath id="a"><rect width="70" height="70" rx="10" fill="#fff"/></clipPath><filter id="b" x="-6" y="4" width="84.786" height="65.145" filterUnits="userSpaceOnUse" color-interpolation-filters="sRGB"><feFlood flood-opacity="0" result="BackgroundImageFix"/><feColorMatrix in="SourceAlpha" values="0 0 0 0 0 0 0 0 0 0 0 0 0 0 0 0 0 0 127 0"/><feOffset dy="4"/><feGaussianBlur stdDeviation="7.5"/><feColorMatrix values="0 0 0 0 0 0 0 0 0 0 0 0 0 0 0 0 0 0 0.25 0"/><feBlend in2="BackgroundImageFix" result="effect1_dropShadow"/><feBlend in="SourceGraphic" in2="effect1_dropShadow" result="shape"/></filter></defs></svg>