<svg width="70" height="70" fill="none" xmlns="http://www.w3.org/2000/svg"><g clip-path="url(#a)"><rect width="70" height="70" rx="10" fill="#003B54"/><path d="M94.857-15.518S68.48-2.956 73.161 28.122c5.252 34.845-25.209 49.8-46.02 41.186C6.329 60.664 7.785 28.689-31.783 27.702c-40.424-.987-48.931-41.246-48.931-41.246" stroke="#fff" stroke-opacity=".2" stroke-width="2" stroke-miterlimit="10"/><path d="M64.368-24.88S52.948 1.68 57.03 28.09c4.11 26.411-14.36 29.522-21.697 26.411C20.09 48.102 17.15 13.824-7.46 11.61-25.959 9.935-50.853 23.186-64.042-6.874" stroke="#fff" stroke-opacity=".2" stroke-width="2" stroke-miterlimit="10"/><path d="M52.063-13.036s4.111 27.13-14.074 22.284C17.15 3.684 17.463-9.357-8.916 2.966c-9.392 4.397-47.19 5.683-39.567-18.484M38.874 45.14c4.368 0 7.908-5.463 7.908-12.203 0-6.74-3.54-12.204-7.908-12.204-4.367 0-7.908 5.464-7.908 12.204s3.54 12.203 7.908 12.203Z" stroke="#fff" stroke-opacity=".2" stroke-width="2" stroke-miterlimit="10"/><g filter="url(#b)"><path d="M17.096 55.696 13 10h45l-4.101 45.689-18.427 5.08-18.376-5.073Z" fill="#1572B6"/><path d="m35.5 56.887 14.89-4.108 3.501-39.043H35.5v43.15Z" fill="#33A9DC"/><path d="M35.5 30.291h7.455l.513-5.738H35.5V18.95h14.128l-.135 1.504L48.108 35.9H35.5v-5.609Z" fill="#fff"/><path d="M35.53 44.847h-.025l-6.274-1.687-.4-4.469h-5.652l.79 8.8 11.541 3.195h.033v-5.84h-.012Z" fill="#EBEBEB"/><path d="m42.477 35.655-.678 7.5-6.284 1.687v5.839l11.549-3.185.084-.948.98-10.895h-5.65v.002Z" fill="#fff"/><path d="M35.52 18.951v5.604H21.916l-.117-1.258-.256-2.842-.135-1.504H35.52Zm-.02 11.34v5.604h-6.203l-.109-1.259-.256-2.84-.135-1.505H35.5Z" fill="#EBEBEB"/></g></g><defs><clipPath id="a"><rect width="70" height="70" rx="10" fill="#fff"/></clipPath><filter id="b" x="-2" y="-1" width="75" height="80.77" filterUnits="userSpaceOnUse" color-interpolation-filters="sRGB"><feFlood flood-opacity="0" result="BackgroundImageFix"/><feColorMatrix in="SourceAlpha" values="0 0 0 0 0 0 0 0 0 0 0 0 0 0 0 0 0 0 127 0"/><feOffset dy="4"/><feGaussianBlur stdDeviation="7.5"/><feColorMatrix values="0 0 0 0 0 0 0 0 0 0 0 0 0 0 0 0 0 0 0.25 0"/><feBlend in2="BackgroundImageFix" result="effect1_dropShadow"/><feBlend in="SourceGraphic" in2="effect1_dropShadow" result="shape"/></filter></defs></svg>